<svg width="56" height="56" xmlns="http://www.w3.org/2000/svg" xmlns:xlink="http://www.w3.org/1999/xlink"><defs><rect id="a" x="0" y="0" width="36" height="34" rx="3"/></defs><g transform="translate(10 11)" fill="none" fill-rule="evenodd"><mask id="b" fill="#fff"><use xlink:href="#a"/></mask><rect stroke="#CCC" x=".5" y=".5" width="35" height="33" rx="3"/><path d="M35.5 8.5V31c0 .69-.28 1.315-.732 1.768A2.492 2.492 0 0 1 33 33.5H3c-.69 0-1.315-.28-1.768-.732A2.492 2.492 0 0 1 .5 31V8.5h35z" stroke="#CCC" fill="#FFF" mask="url(#b)"/><g mask="url(#b)" fill="#CDCDCD"><g transform="translate(3 26)"><rect width="8" height="3" rx="1.5"/><rect x="22" width="8" height="3" rx="1.5"/><rect x="11" width="8" height="3" rx="1.5"/></g></g><g mask="url(#b)" fill="#CDCDCD"><g transform="translate(3 19)"><rect width="8" height="3" rx="1.5"/><rect x="22" width="8" height="3" rx="1.5"/><rect x="11" width="8" height="3" rx="1.5"/></g></g><g mask="url(#b)" fill="#CDCDCD"><g transform="translate(3 12)"><rect width="8" height="3" rx="1.5"/><rect x="22" width="8" height="3" rx="1.5"/><rect x="11" width="8" height="3" rx="1.5"/></g></g></g></svg>