<svg width="56" height="56" xmlns="http://www.w3.org/2000/svg"><g fill="none" fill-rule="evenodd"><path d="M17 12h26a3 3 0 0 1 3 3v26a3 3 0 0 1-3 3H17a3 3 0 0 1-3-3V15a3 3 0 0 1 3-3zm0 1a2 2 0 0 0-2 2v26a2 2 0 0 0 2 2h26a2 2 0 0 0 2-2V15a2 2 0 0 0-2-2H17z" fill="#CCC" fill-rule="nonzero"/><path d="M29.47 34.674c0 .584-.067 1.086-.198 1.505a2.817 2.817 0 0 1-.556 1.035 2.14 2.14 0 0 1-.861.596c-.336.127-.707.19-1.115.19-.407 0-.779-.063-1.114-.19a2.163 2.163 0 0 1-.865-.596 2.824 2.824 0 0 1-.56-1.035c-.134-.419-.201-.92-.201-1.505V33.32c0-.585.066-1.087.197-1.505.132-.42.318-.763.559-1.033.24-.269.528-.467.861-.593.334-.127.704-.19 1.112-.19.408 0 .78.063 1.114.19.336.126.624.324.865.593.24.27.428.614.561 1.033.134.418.2.92.2 1.505v1.353zm-1.607-1.572a4.28 4.28 0 0 0-.075-.872 1.603 1.603 0 0 0-.222-.57.869.869 0 0 0-.359-.312 1.14 1.14 0 0 0-.478-.097c-.178 0-.336.032-.475.097a.855.855 0 0 0-.353.312c-.096.145-.17.335-.22.57a4.28 4.28 0 0 0-.075.872v1.775c0 .35.026.643.078.882.052.24.126.433.222.58a.84.84 0 0 0 .356.319c.141.064.3.096.478.096s.337-.032.478-.096a.824.824 0 0 0 .353-.318c.095-.148.167-.342.217-.58a4.39 4.39 0 0 0 .075-.883v-1.775zm7.965-.926c0 .378-.098.713-.295 1.006a2.094 2.094 0 0 1-.811.7c.392.182.704.433.933.752.23.319.345.694.345 1.125 0 .371-.069.696-.206.974a1.993 1.993 0 0 1-.57.7c-.242.19-.53.33-.864.425a3.985 3.985 0 0 1-1.089.142c-.39 0-.751-.047-1.087-.142a2.526 2.526 0 0 1-.87-.425 2.008 2.008 0 0 1-.575-.7 2.151 2.151 0 0 1-.208-.974c0-.431.115-.807.344-1.128.23-.32.54-.57.929-.749a2.072 2.072 0 0 1-.81-.7 1.773 1.773 0 0 1-.29-1.006c0-.352.063-.664.19-.933a1.98 1.98 0 0 1 .532-.682c.226-.185.495-.325.808-.42A3.557 3.557 0 0 1 33.265 30c.375 0 .718.047 1.031.142.314.094.584.234.812.42.228.185.405.412.53.681.127.27.19.58.19.933zm-1.44 3.471c0-.171-.027-.326-.08-.465a.982.982 0 0 0-.228-.353.997.997 0 0 0-.356-.222 1.323 1.323 0 0 0-.464-.078 1.3 1.3 0 0 0-.461.078 1.002 1.002 0 0 0-.353.222.982.982 0 0 0-.228.353c-.054.139-.08.294-.08.465 0 .171.026.325.08.463a.968.968 0 0 0 .584.57c.138.05.295.074.469.074.348 0 .622-.098.82-.294.198-.196.297-.467.297-.813zm-.167-3.396c0-.303-.083-.546-.25-.73-.166-.183-.402-.275-.706-.275-.3 0-.533.09-.7.267-.167.179-.25.425-.25.738 0 .31.083.56.25.749.167.189.402.283.706.283.304 0 .538-.094.703-.283.165-.189.247-.439.247-.749z" fill="#333" fill-rule="nonzero"/><path d="M17 12h26a3 3 0 0 1 3 3v9H14v-9a3 3 0 0 1 3-3z" fill="#F2F2F2"/><path d="M17 12h26a3 3 0 0 1 3 3v9H14v-9a3 3 0 0 1 3-3zm28 11v-8a2 2 0 0 0-2-2H17a2 2 0 0 0-2 2v8h30z" fill="#CCC" fill-rule="nonzero"/><text font-family="Roboto-Bold, Roboto" font-size="8" font-weight="bold" fill="#000" fill-opacity=".8">
            <tspan x="23" y="21">Tue</tspan>
        </text></g></svg>