<svg width="56" height="56" xmlns="http://www.w3.org/2000/svg" xmlns:xlink="http://www.w3.org/1999/xlink"><defs><rect id="a" x="0" y="0" width="36" height="34" rx="3"/></defs><g transform="translate(10 11)" fill="none" fill-rule="evenodd"><mask id="b" fill="#fff"><use xlink:href="#a"/></mask><rect stroke="#CCC" x=".5" y=".5" width="35" height="33" rx="3"/><path d="M35.5 8.5V31c0 .69-.28 1.315-.732 1.768A2.492 2.492 0 0 1 33 33.5H3c-.69 0-1.315-.28-1.768-.732A2.492 2.492 0 0 1 .5 31V8.5h35z" stroke="#CCC" fill="#FFF" mask="url(#b)"/><path stroke="#CCC" fill="#F2F2F2" mask="url(#b)" d="M.5 8.5h35v5H.5z"/><path stroke="#CCC" fill="#FFF" mask="url(#b)" d="M.5 13.5h35v5H.5zm0 5h35v5H.5z"/><path stroke="#CCC" fill="#F2F2F2" mask="url(#b)" d="M.5 23.5h35v5H.5z"/><path stroke="#CCC" mask="url(#b)" d="M.5 8.5h11.774v25H.5z"/><path stroke="#CCC" mask="url(#b)" d="M12.113 8.5h11.774v25H12.113z"/><path stroke="#CCC" mask="url(#b)" d="M23.726 8.5H35.5v25H23.726z"/></g></svg>