<svg width="56" height="56" xmlns="http://www.w3.org/2000/svg"><g fill="none" fill-rule="evenodd"><path d="M0 0h56v56H0z"/><g transform="translate(10 10)"><rect stroke="#CCC" fill="#F2F2F2" x=".5" y=".5" width="35" height="35" rx="3"/><g fill="#000" fill-rule="nonzero"><path d="m21.071 18.243 1.414 1.414 2.829-2.829a4 4 0 0 0-5.657-5.656L16.828 14l1.415 1.414 2.828-2.828a2 2 0 1 1 2.828 2.828l-2.828 2.829zm-2.828 2.828 1.414 1.414-2.829 2.829a4 4 0 0 1-5.656-5.657L14 16.828l1.414 1.415-2.828 2.828a2 2 0 1 0 2.828 2.829l2.829-2.829z"/><path d="M21.071 16.828a1 1 0 0 0-1.414-1.414l-4.243 4.243a1 1 0 1 0 1.414 1.414l4.243-4.243z"/></g></g></g></svg>