<svg width="56" height="56" xmlns="http://www.w3.org/2000/svg"><g fill="none" fill-rule="evenodd"><path d="M13.375 10h29.25A3.375 3.375 0 0 1 46 13.375v29.25A3.375 3.375 0 0 1 42.625 46h-29.25A3.375 3.375 0 0 1 10 42.625v-29.25A3.375 3.375 0 0 1 13.375 10zm0 1.125a2.25 2.25 0 0 0-2.25 2.25v29.25a2.25 2.25 0 0 0 2.25 2.25h29.25a2.25 2.25 0 0 0 2.25-2.25v-29.25a2.25 2.25 0 0 0-2.25-2.25h-29.25z" fill="#CCC" fill-rule="nonzero"/><path d="M13.375 10h29.25A3.375 3.375 0 0 1 46 13.375V19H10v-5.625A3.375 3.375 0 0 1 13.375 10z" fill="#F2F2F2"/><path d="M13.375 10h29.25A3.375 3.375 0 0 1 46 13.375V19H10v-5.625A3.375 3.375 0 0 1 13.375 10zm31.5 3.375a2.25 2.25 0 0 0-2.25-2.25h-29.25a2.25 2.25 0 0 0-2.25 2.25v4.5h33.75v-4.5z" fill="#CCC" fill-rule="nonzero"/><path d="M19.759 21.492h-5.536c-.4 0-.725.324-.725.725v5.536c0 .4.324.725.725.725h5.536c.4 0 .725-.325.725-.725v-5.536c0-.4-.325-.725-.725-.725zm-.256 3.988h-2.008v2.026h-1V25.48h-1.989v-.99h1.99v-2.008h1v2.008h2.007v.99z" fill="#000" fill-rule="nonzero"/><rect fill="#F2F2F2" x="22" y="22" width="20" height="6" rx="1"/><rect stroke="#CCC" fill="#F2F2F2" x="13.5" y="30.5" width="28" height="12" rx="2"/></g></svg>