<svg width="56" height="56" xmlns="http://www.w3.org/2000/svg"><g transform="translate(11 9)" fill="none" fill-rule="evenodd"><rect fill="#CECECE" x="14" y="1" width="19" height="2" rx="1"/><rect fill="#CECECE" x="14" y="34" width="19" height="2" rx="1"/><rect fill="#CECECE" x="14" y="6" width="13" height="2" rx="1"/><rect fill="#CECECE" x="14" y="16" width="13" height="2" rx="1"/><rect fill="#CECECE" x="14" y="20" width="16" height="2" rx="1"/><rect fill="#CECECE" x="14" y="30" width="8" height="2" rx="1"/><path stroke="#979797" stroke-width=".5" stroke-linecap="round" stroke-linejoin="round" d="M4 6.5v23"/><path d="M4 0a4 4 0 1 1 0 8 4 4 0 0 1 0-8zm1.55 2.458-.006.005L3.442 4.62a.311.311 0 0 1-.446 0l-.836-.857a.307.307 0 0 0-.433-.005l-.006.005a.323.323 0 0 0 0 .451l.83.851a.933.933 0 0 0 1.336 0l2.096-2.15a.323.323 0 0 0 0-.45.307.307 0 0 0-.434-.006z" fill="#2B2C2B" fill-rule="nonzero"/><rect fill="#EBEBEB" y="29" width="8" height="8" rx="4"/><rect fill="#EBEBEB" y="15" width="8" height="8" rx="4"/><circle fill="#FFF" cx="4" cy="33" r="2"/><circle fill="#FFF" cx="4" cy="19" r="2"/></g></svg>