<svg width="56" height="56" xmlns="http://www.w3.org/2000/svg"><g fill="none" fill-rule="evenodd"><path d="M0 0h56v56H0z"/><g transform="translate(5 11)"><path d="M0 10h46v22a2 2 0 0 1-2 2H2a2 2 0 0 1-2-2V10z" stroke="#CCC" fill="#F2F2F2" stroke-dasharray="3"/><rect stroke="#CCC" width="46" height="34" rx="2"/><path d="M25.857 20.429h-2.286v-2.286A.143.143 0 0 0 23.43 18h-.858a.143.143 0 0 0-.142.143v2.286h-2.286a.143.143 0 0 0-.143.142v.858c0 .078.064.142.143.142h2.286v2.286c0 .079.064.143.142.143h.858a.143.143 0 0 0 .142-.143v-2.286h2.286A.143.143 0 0 0 26 21.43v-.858a.143.143 0 0 0-.143-.142z"/><rect fill="#CCC" x="2.9" y="4" width="17" height="2" rx="1"/><path d="M25.857 21.429h-2.286v-2.286A.143.143 0 0 0 23.43 19h-.858a.143.143 0 0 0-.142.143v2.286h-2.286a.143.143 0 0 0-.143.142v.858c0 .078.064.142.143.142h2.286v2.286c0 .079.064.143.142.143h.858a.143.143 0 0 0 .142-.143v-2.286h2.286A.143.143 0 0 0 26 22.43v-.858a.143.143 0 0 0-.143-.142z" fill="#333" fill-rule="nonzero"/></g></g></svg>