<svg width="56" height="56" xmlns="http://www.w3.org/2000/svg"><g transform="translate(12 9)" fill="none" fill-rule="evenodd"><rect stroke="#CCC" fill="#F2F2F2" transform="matrix(-1 0 0 1 31 0)" x=".5" y=".5" width="30" height="39" rx="4"/><rect fill="#CDCDCD" x="5" y="4" width="10" height="3" rx="1"/><rect fill="#2F302F" x="5" y="11" width="11" height="3" rx="1"/><rect fill="#CDCDCD" x="5" y="18" width="20" height="3" rx="1"/><rect fill="#CDCDCD" x="5" y="24" width="15" height="3" rx="1"/><rect fill="#CDCDCD" x="5" y="31" width="20" height="3" rx="1"/><path d="M23.5 2.5c2.485 0 4.5 2.053 4.5 4.585 0 1.688-1.5 3.73-4.5 6.127-3-2.397-4.5-4.439-4.5-6.127C19 4.553 21.015 2.5 23.5 2.5zm0 1.125c-1.86 0-3.375 1.545-3.375 3.46 0 1.095 1.02 2.619 3.138 4.465l.237.204.014-.011c2.192-1.869 3.287-3.418 3.357-4.544l.004-.114c0-1.915-1.516-3.46-3.375-3.46zm0 2.063a1.313 1.313 0 1 1 0 2.625 1.313 1.313 0 0 1 0-2.626zm0 1.125a.187.187 0 1 0 0 .374.187.187 0 0 0 0-.374z" fill="#2B2C2B" fill-rule="nonzero"/></g></svg>