<svg width="56" height="56" xmlns="http://www.w3.org/2000/svg"><g fill="none" fill-rule="evenodd"><path d="M8 18h40a2 2 0 0 1 2 2v16a2 2 0 0 1-2 2H8a2 2 0 0 1-2-2V20a2 2 0 0 1 2-2z" stroke="#CCC" fill="#F2F2F2" stroke-dasharray="3"/><path d="M30.857 27.429h-2.286v-2.286A.143.143 0 0 0 28.43 25h-.858a.143.143 0 0 0-.142.143v2.286h-2.286a.143.143 0 0 0-.143.142v.858c0 .078.064.142.143.142h2.286v2.286c0 .079.064.143.142.143h.858a.143.143 0 0 0 .142-.143v-2.286h2.286A.143.143 0 0 0 31 28.43v-.858a.143.143 0 0 0-.143-.142z" fill="#333" fill-rule="nonzero"/></g></svg>