<svg width="56" height="56" xmlns="http://www.w3.org/2000/svg"><defs><linearGradient x1="50%" y1="0%" x2="50%" y2="100%" id="a"><stop stop-color="#EEE" offset="0%"/><stop stop-color="#D8D8D8" stop-opacity="0" offset="100%"/></linearGradient><linearGradient x1="50%" y1="0%" x2="50%" y2="100%" id="b"><stop stop-color="#EEE" offset="0%"/><stop stop-color="#D8D8D8" stop-opacity="0" offset="100%"/></linearGradient></defs><g transform="translate(4.873 8.683)" fill="none" fill-rule="evenodd"><path stroke="#EBEBEB" stroke-dasharray="3,3" d="M25.127 0v33.115"/><path d="M.127 33.317c5.152-10.347 9.804-15.52 13.958-15.52 6.23 0 4.561-4.114 10.242-1.502 5.681 2.611 5.165-14.018 10.97-14.018 3.87 0 6.958 1.83 9.267 5.488v25.552H.127z" fill="url(#a)"/><path d="M0 32.939c4.338-12.914 8.61-19.37 12.817-19.37 6.31 0 4.247 10.6 10 12.425 5.754 1.825 9.738-15.417 16.31-15.417h5.2v22.362H0z" fill="url(#b)"/><path d="M0 32.939c4.338-12.914 8.61-19.37 12.817-19.37 6.31 0 4.247 10.6 10 12.425 5.754 1.825 9.738-15.417 16.31-15.417h5.2" stroke="#979797"/><path d="M.127 33.317c5.152-10.347 9.804-15.52 13.958-15.52 6.23 0 4.561-4.114 10.242-1.502 5.681 2.611 5.165-14.018 10.97-14.018 3.87 0 6.958 1.83 9.267 5.488" stroke="#979797"/><rect stroke="#333" stroke-width="2" fill="#FFF" x="23.127" y="14.317" width="4" height="4" rx="2"/></g></svg>