<svg width="30" height="26" viewBox="0 0 30 26" version="1.1" xmlns="http://www.w3.org/2000/svg"><title>Group 15</title><g fill="#6A7385" stroke="none" stroke-width="1" fill-rule="evenodd"><path d="M3 11h4v4H3zM3 19h4v4H3zM3 3h4v4H3zM11 11h4v4h-4zM11 19h4v4h-4zM15 0h4v3h-4zM7 7h4v4H7zM7 15h4v4H7zM19 3h4v4h-4zM27 11h3v4h-3zM27 19h3v4h-3zM7 0h4v3H7zM0 7h3v4H0zM0 15h3v4H0zM11 3h4v4h-4zM19 11h4v4h-4zM19 19h4v4h-4zM23 0h4v3h-4zM15 7h4v4h-4zM15 15h4v4h-4zM27 3h3v4h-3zM23 23h4v3h-4zM7 23h4v3H7zM23 7h4v4h-4zM23 15h4v4h-4zM15 23h4v3h-4zM0 23h3v3a3 3 0 0 1-3-3zM3 0v3H0a3 3 0 0 1 3-3z"/></g></svg>