<svg version="1.1" id="Layer_1" xmlns="http://www.w3.org/2000/svg" x="0" y="0" viewBox="0 0 272 116" xml:space="preserve"><style>.st0{fill:none;stroke:#252c41}</style><g id="Chammily"><g id="Group-20"><path id="Rectangle" class="st0" d="M.5 8.5h271v1H.5z"/><path id="Rectangle-Copy-14" class="st0" d="M.5 17.5h271v1H.5z"/><path id="Rectangle-Copy" class="st0" d="M.5 26.5h271v1H.5z"/><path id="Rectangle-Copy-2" class="st0" d="M.5 35.5h271v1H.5z"/><path id="Rectangle-Copy-10" class="st0" d="M.5 44.5h271v1H.5z"/><path id="Rectangle-Copy-15" class="st0" d="M.5 80.5h271v1H.5z"/><path id="Rectangle-Copy-11" class="st0" d="M.5 53.5h271v1H.5z"/><path id="Rectangle-Copy-16" class="st0" d="M.5 89.5h271v1H.5z"/><path id="Rectangle-Copy-12" class="st0" d="M.5 62.5h271v1H.5z"/><path id="Rectangle-Copy-17" class="st0" d="M.5 98.5h271v1H.5z"/><path id="Rectangle-Copy-13" class="st0" d="M.5 71.5h271v1H.5z"/><path id="Rectangle-Copy-18" class="st0" d="M.5 107.5h271v1H.5z"/><path id="Rectangle-Copy-18_1_" class="st0" d="M12.5.5h1v115h-1z"/><path id="Rectangle-Copy-51" class="st0" d="M3.5.5h1v115h-1z"/><path id="Rectangle-Copy-23" class="st0" d="M57.5.5h1v115h-1z"/><path id="Rectangle-Copy-28" class="st0" d="M102.5.5h1v115h-1z"/><path id="Rectangle-Copy-33" class="st0" d="M147.5.5h1v115h-1z"/><path id="Rectangle-Copy-38" class="st0" d="M192.5.5h1v115h-1z"/><path id="Rectangle-Copy-43" class="st0" d="M237.5.5h1v115h-1z"/><path id="Rectangle-Copy-19" class="st0" d="M21.5.5h1v115h-1z"/><path id="Rectangle-Copy-24" class="st0" d="M66.5.5h1v115h-1z"/><path id="Rectangle-Copy-29" class="st0" d="M111.5.5h1v115h-1z"/><path id="Rectangle-Copy-34" class="st0" d="M156.5.5h1v115h-1z"/><path id="Rectangle-Copy-39" class="st0" d="M201.5.5h1v115h-1z"/><path id="Rectangle-Copy-44" class="st0" d="M246.5.5h1v115h-1z"/><path id="Rectangle-Copy-20" class="st0" d="M30.5.5h1v115h-1z"/><path id="Rectangle-Copy-25" class="st0" d="M75.5.5h1v115h-1z"/><path id="Rectangle-Copy-30" class="st0" d="M120.5.5h1v115h-1z"/><path id="Rectangle-Copy-35" class="st0" d="M165.5.5h1v115h-1z"/><path id="Rectangle-Copy-40" class="st0" d="M210.5.5h1v115h-1z"/><path id="Rectangle-Copy-45" class="st0" d="M255.5.5h1v115h-1z"/><path id="Rectangle-Copy-50" class="st0" d="M264.5.5h1v115h-1z"/><path id="Rectangle-Copy-21" class="st0" d="M39.5.5h1v115h-1z"/><path id="Rectangle-Copy-26" class="st0" d="M84.5.5h1v115h-1z"/><path id="Rectangle-Copy-31" class="st0" d="M129.5.5h1v115h-1z"/><path id="Rectangle-Copy-36" class="st0" d="M174.5.5h1v115h-1z"/><path id="Rectangle-Copy-41" class="st0" d="M219.5.5h1v115h-1z"/><path id="Rectangle-Copy-22" class="st0" d="M48.5.5h1v115h-1z"/><path id="Rectangle-Copy-27" class="st0" d="M93.5.5h1v115h-1z"/><path id="Rectangle-Copy-32" class="st0" d="M138.5.5h1v115h-1z"/><path id="Rectangle-Copy-37" class="st0" d="M183.5.5h1v115h-1z"/><path id="Rectangle-Copy-42" class="st0" d="M228.5.5h1v115h-1z"/></g></g></svg>